# AST/ASF file generated using VICON BodyLanguage
# -----------------------------------------------
:version 1.10
:name VICON
:units
  mass 1.0
  length 0.45
  angle deg
:documentation
   .ast/.asf automatically generated from VICON data using
   VICON BodyBuilder and BodyLanguage model FoxedUp or BRILLIANT.MOD
:root
   order TX TY TZ RX RY RZ
   axis XYZ
   position 0 0 0  
   orientation 0 0 0 
:bonedata
  begin
     id 1 
     name lhipjoint
     direction 0.693937 -0.600361 0.397515 
     length 2.37164 
     axis 0 0 0  XYZ
  end
  begin
     id 2 
     name lfemur
     direction 0.34202 -0.939693 0  
     length 6.18497  
     axis 0 0 20  XYZ
    dof rx ry rz
    limits (-160.0 20.0)
           (-70.0 70.0)
           (-60.0 70.0)
  end
  begin
     id 3 
     name ltibia
     direction 0.34202 -0.939693 0   
     length 6.91601   
     axis 0 0 20   XYZ
    dof rx
    limits (-10.0 170.0)
  end
  begin
     id 4 
     name lfoot
     direction 0.0978718 -0.2689 0.958182   
     length 1.81453   
     axis -90 7.62852e-016 20   XYZ
    dof rx rz
    limits (-45.0 90.0)
           (-70.0 20.0)
  end
  begin
     id 5 
     name ltoes
     direction 1.53569e-011 -4.21951e-011 1   
     length 0.912052   
     axis -90 7.62852e-016 20   XYZ
    dof rx
    limits (-90.0 20.0)
  end
  begin
     id 6 
     name rhipjoint
     direction -0.643996 -0.637876 0.422354   
     length 2.23216  
     axis 0 0 0  XYZ 
  end
  begin
     id 7 
     name rfemur
     direction -0.34202 -0.939693 0   
     length 6.15404   
     axis 0 0 -20   XYZ
    dof rx ry rz
    limits (-160.0 20.0)
           (-70.0 70.0)
           (-70.0 60.0)
  end
  begin
     id 8 
     name rtibia
     direction -0.34202 -0.939693 0   
     length 6.86744   
     axis 0 0 -20   XYZ
    dof rx
    limits (-10.0 170.0)
 end
 begin
     id 9 
     name rfoot
     direction -0.118701 -0.326127 0.937844   
     length 1.9243  
     axis -90 -7.62852e-016 -20   XYZ
    dof rx rz
    limits (-45.0 90.0)
           (-20.0 70.0)
  end
  begin
     id 10 
     name rtoes
     direction -1.5356e-011 -4.2181e-011 1   
     length 0.958865   
     axis -90 -7.62852e-016 -20   XYZ
    dof rx
    limits (-90.0 20.0)
  end
  begin
     id 11 
     name lowerback
     direction 0.0310826 0.968686 -0.246334   
     length 2.00021   
     axis 0 0 0   XYZ
    dof rx ry rz
    limits (-20.0 45.0)
           (-30.0 30.0)
           (-30.0 30.0)
  end
  begin
     id 12 
     name upperback
     direction -0.0152834 0.999474 -0.0286152   
     length 2.03728   
     axis 0 0 0   XYZ
    dof rx ry rz
    limits (-20.0 45.0)
           (-30.0 30.0)
           (-30.0 30.0)
  end
  begin
     id 13 
     name thorax
     direction -0.0323701 0.996236 0.0804149   
     length 2.16   
     axis 0 0 0   XYZ
    dof rx ry rz
    limits (-20.0 45.0)
           (-30.0 30.0)
           (-30.0 30.0)
  end
  begin
     id 14 
     name lowerneck
     direction 0.0307935 0.982251 0.185027   
     length 1.43558   
     axis 0 0 0   XYZ
    dof rx ry rz
    limits (-20.0 45.0)
           (-30.0 30.0)
           (-30.0 30.0)
  end
  begin
     id 15 
     name upperneck
     direction -0.0927153 0.994775 0.0427454   
     length 1.44603   
     axis 0 0 0   XYZ
    dof rx ry rz
    limits (-20.0 45.0)
           (-30.0 30.0)
           (-30.0 30.0)
  end
  begin
     id 16
     name head
     direction -0.0341265 0.999406 -0.00472033  
     length 1.45931  
     axis 0 0 0   XYZ
    dof rx ry rz
    limits (-20.0 45.0)
           (-30.0 30.0)
           (-30.0 30.0)
  end
  begin
     id 17 
     name lclavicle
     direction 0.820755 0.555306 -0.134151  
     length 2.66075  
     axis 0 0 0   XYZ
    dof ry rz
    limits (-20.0 10.0)
           (0.0 20.0)
  end
  begin
     id 18 
     name lhumerus
     direction 1 -4.48971e-011 5.24853e-027   
     length 5.0546   
     axis -180 -30 -90   XYZ
    dof rx ry rz
    limits (-60.0 90.0)
           (-90.0 90.0)
           (-90.0 90.0)
  end
  begin
     id 19
     name lradius
     direction 1 -4.48971e-011 2.76575e-028   
     length 3.39013   
     axis -180 -30 -90   XYZ
    dof rx
    limits (-10.0 170.0)
  end
  begin
     id 20
     name lwrist
     direction 1 -4.48939e-011 -2.27826e-027   
     length 1.69507   
     axis 2.17013e-015 90 90   XYZ
    dof ry
    limits (-180.0 0.0)
 end
  begin
     id 21 
     name lhand
     direction 1 -4.49009e-011 -4.55652e-027   
     length 0.572425   
     axis 2.90745e-015 90 90   XYZ
    dof rx rz
    limits (-90.0 90.0)
           (-45.0 45.0)
  end
  begin
     id 22 
     name lfingers
     direction 1 -4.48955e-011 -9.11303e-027   
     length 0.461504   
     axis 5.81489e-015 90 90   XYZ
    dof rx
    limits (0.0 90.0)
  end
  begin
     id 23
     name lthumb
     direction 0.707107 -6.34929e-011 0.707107   
     length 0.66263   
     axis -90 45 2.85299e-015   XYZ
    dof rx rz
    limits (-45.0 45.0)
           (-45.0 45.0)
  end
  begin
     id 24 
     name rclavicle
     direction -0.754477 0.632921 -0.173712   
     length 2.73081  
     axis 0 0 0   XYZ 
    dof ry rz
    limits (-10.0 20.0)
           (-20.0 0.0)
  end
  begin
     id 25 
     name rhumerus
     direction -1 -4.48969e-011 5.1496e-027  
     length 5.0701   
     axis -180 30 90   XYZ
    dof rx ry rz
    limits (-90.0 60.0)
           (-90.0 90.0)
           (-90.0 90.0)
  end
  begin
     id 26 
     name rradius
     direction -1 -4.48967e-011 -7.15624e-028   
     length 3.14957   
     axis -180 30 90   XYZ
    dof rx
    limits (-10.0 170.0)
  end
  begin
     id 27 
     name rwrist
     direction -1 -4.48938e-011 -2.27826e-027   
     length 1.57479   
     axis 2.17013e-015 -90 -90   XYZ
    dof ry
    limits (-180.0 0.0)
  end
  begin
     id 28
     name rhand
     direction -1 -4.49008e-011 -4.55652e-027   
     length 0.718191   
     axis 2.90745e-015 -90 -90   XYZ
    dof rx rz
    limits (-90.0 90.0)
           (-45.0 45.0)
  end
  begin
     id 29
     name rfingers
     direction -1 -4.48953e-011 -9.11303e-027   
     length 0.579024   
     axis 5.81489e-015 -90 -90   XYZ
    dof rx
    limits (0.0 90.0)
  end
  begin
     id 30
     name rthumb
     direction -0.707107 -6.34937e-011 0.707107   
     length 0.831366   
     axis -90 -45 -2.85299e-015   XYZ
    dof rx rz
    limits (-45.0 45.0)
           (-45.0 45.0)
  end
:hierarchy
  begin
    root lhipjoint rhipjoint lowerback
    lhipjoint lfemur
    lfemur ltibia
    ltibia lfoot
    lfoot ltoes
    rhipjoint rfemur
    rfemur rtibia
    rtibia rfoot
    rfoot rtoes
    lowerback upperback
    upperback thorax
    thorax lowerneck lclavicle rclavicle
    lowerneck upperneck
    upperneck head
    lclavicle lhumerus
    lhumerus lradius
    lradius lwrist
    lwrist lhand lthumb
    lhand lfingers
    rclavicle rhumerus
    rhumerus rradius
    rradius rwrist
    rwrist rhand rthumb
    rhand rfingers
  end

#!OML:ASF H:\Male1\Project 1\Capture day 1\Session 1\Male1.ASF
:FULLY-SPECIFIED
:DEGREES
64
root -24.094 14.9963 -0.41655 -7.26723 85.864 -7.35137
lowerback 3.67185 2.12064 -0.735762
upperback 2.90394 2.86588 -1.18525
thorax 0.948039 1.45647 -0.881155
lowerneck -11.4543 4.99338 8.37342
upperneck 11.5555 5.72677 -2.76361
head 5.69559 2.97329 -1.73744
rclavicle 3.57812e-014 -1.07344e-014
rhumerus -36.7889 -0.331979 -88.2803
rradius 36.4948
rwrist -21.398
rhand -17.3394 0.00576879
rfingers 7.12502
rthumb 8.90788 -29.7862
lclavicle 3.57812e-014 -1.07344e-014
lhumerus -31.5698 -1.82177 85.2413
lradius 30.8235
lwrist -1.06048
lhand -20.0134 11.1054
lfingers 7.12502
lthumb 6.32687 40.9909
rfemur -10.6171 16.7482 24.1361
rtibia 33.2042
rfoot -31.3518 -30.2511
rtoes -22.8716
lfemur -11.4309 -18.2333 -21.724
ltibia 34.3489
lfoot -28.1754 24.4566
ltoes -2.77463
65
root -24.0682 14.9841 -0.430142 -5.246 85.1651 -4.94287
lowerback 3.61261 2.35716 -0.649481
upperback 3.12039 3.19423 -1.26883
thorax 1.21683 1.62564 -1.01479
lowerneck -11.3988 4.98747 8.37904
upperneck 11.4247 5.7215 -2.77329
head 5.64523 2.96863 -1.74416
rclavicle -1.17283e-014 -2.38542e-015
rhumerus -36.7637 -0.318807 -88.3413
rradius 36.5542
rwrist -21.4432
rhand -17.4406 -0.118668
rfingers 7.12502
rthumb 8.81022 -29.9148
lclavicle -1.17283e-014 -2.38542e-015
lhumerus -31.5257 -1.8171 85.2053
lradius 30.8426
lwrist -1.01818
lhand -19.9035 11.2771
lfingers 7.12502
lthumb 6.43301 41.1594
rfemur -10.206 16.7702 24.0334
rtibia 33.2546
rfoot -30.993 -29.8395
rtoes -23.5492
lfemur -10.7175 -18.3561 -22.196
ltibia 34.3483
lfoot -28.8638 25.0071
ltoes -1.87501
66
root -24.0588 14.98 -0.435594 -5.41091 84.8922 -4.99533
lowerback 3.56214 2.43671 -0.523591
upperback 3.20192 3.30766 -1.30083
thorax 1.33948 1.68602 -1.11548
lowerneck -11.3136 5.00161 8.3733
upperneck 11.2948 5.74312 -2.7438
head 5.59026 2.97977 -1.73492
rclavicle -2.35063e-014 2.38542e-015
rhumerus -36.6945 -0.341703 -88.4058
rradius 36.5187
rwrist -21.4528
rhand -17.4521 -0.124122
rfingers 7.12502
rthumb 8.79906 -29.9207
lclavicle -2.35063e-014 2.38542e-015
lhumerus -31.4699 -1.75051 85.1405
lradius 30.8117
lwrist -1.06037
lhand -19.8594 11.3508
lfingers 7.12502
lthumb 6.47555 41.2318
rfemur -10.0857 16.7773 24.0623
rtibia 33.2525
rfoot -30.7571 -29.7631
rtoes -24.1552
lfemur -10.4912 -18.4117 -22.2866
ltibia 34.3561
lfoot -29.1462 25.1935
ltoes -1.34979
67
root -24.0664 14.9844 -0.431744 -6.35663 85.0995 -6.11074
lowerback 3.53524 2.36129 -0.544128
upperback 3.13046 3.2029 -1.24966
thorax 1.27505 1.63139 -1.0501
lowerneck -11.3004 5.0155 8.35916
upperneck 11.3252 5.7683 -2.75946
head 5.59901 2.99093 -1.73537
rclavicle 6.55989e-015 -1.98785e-014
rhumerus -36.6457 -0.376795 -88.3855
rradius 36.4381
rwrist -21.4104
rhand -17.3701 -0.0423062
rfingers 7.12502
rthumb 8.87822 -29.8355
lclavicle 6.55989e-015 -1.98785e-014
lhumerus -31.4551 -1.67473 85.1404
lradius 30.7685
lwrist -1.1327
lhand -19.8269 11.1837
lfingers 7.12502
lthumb 6.50695 41.0637
rfemur -10.2607 16.7378 24.1249
rtibia 33.2174
rfoot -30.7929 -29.9017
rtoes -24.1092
lfemur -10.7779 -18.3107 -22.064
ltibia 34.367
lfoot -28.9053 24.9755
ltoes -1.70407
68
root -24.0909 15.0006 -0.417084 -7.53785 85.7923 -7.86497
lowerback 3.43459 2.14642 -0.726902
upperback 2.86471 2.90164 -1.19632
thorax 1.04147 1.47349 -0.889249
lowerneck -11.3376 5.01866 8.36009
upperneck 11.4454 5.77041 -2.75005
head 5.64298 2.99436 -1.73052
rclavicle 2.71838e-014 5.96354e-015
rhumerus -36.6684 -0.46807 -88.3758
rradius 36.4024
rwrist -21.3657
rhand -17.2893 0.00100144
rfingers 7.12502
rthumb 8.95614 -29.7889
lclavicle 2.71838e-014 5.96354e-015
lhumerus -31.5056 -1.70147 85.1397
lradius 30.7793
lwrist -1.14771
lhand -19.7794 11.0755
lfingers 7.12502
lthumb 6.55278 40.9541
rfemur -10.8787 16.6804 24.1057
rtibia 33.1649
rfoot -31.1042 -30.2592
rtoes -23.3862
lfemur -11.7264 -18.0076 -21.5613
ltibia 34.3873
lfoot -28.0776 24.344
ltoes -3.02271
69
root -24.0896 15.0021 -0.416751 -7.59846 85.7713 -7.96118
lowerback 3.41462 2.17411 -0.718382
upperback 2.85802 2.93889 -1.20921
thorax 1.04726 1.49232 -0.907382
lowerneck -11.3644 5.00568 8.34341
upperneck 11.4691 5.74698 -2.70005
head 5.65172 2.986 -1.71346
rclavicle -1.20762e-014 3.97569e-015
rhumerus -36.6543 -0.552548 -88.3851
rradius 36.384
rwrist -21.3593
rhand -17.2154 -0.00258554
rfingers 7.12502
rthumb 9.02749 -29.7894
lclavicle -1.20762e-014 3.97569e-015
lhumerus -31.5025 -1.70921 85.1122
lradius 30.7797
lwrist -1.1801
lhand -19.7737 11.0883
lfingers 7.12502
lthumb 6.55832 40.9668
rfemur -10.9 16.6976 24.106
rtibia 33.1381
rfoot -31.0744 -30.2446
rtoes -23.1996
lfemur -11.7694 -17.965 -21.5381
ltibia 34.4048
lfoot -28.059 24.3432
ltoes -3.12285
70
root -24.0621 14.9872 -0.432212 -6.99848 85.0462 -6.83538
lowerback 3.48461 2.42198 -0.519124
upperback 3.11373 3.28385 -1.23496
thorax 1.28784 1.67174 -1.04885
lowerneck -11.3793 5.00575 8.36669
upperneck 11.4499 5.74511 -2.72941
head 5.64961 2.98345 -1.72641
rclavicle 4.52235e-014 -1.31198e-014
rhumerus -36.6096 -0.594333 -88.3578
rradius 36.3682
rwrist -21.3544
rhand -17.1357 -0.00774977
rfingers 7.12502
rthumb 9.10438 -29.7912
lclavicle 4.52235e-014 -1.31198e-014
lhumerus -31.4382 -1.68392 85.1104
lradius 30.7299
lwrist -1.20825
lhand -19.8638 11.1756
lfingers 7.12502
lthumb 6.47128 41.0568
rfemur -10.303 16.7745 24.1688
rtibia 33.1446
rfoot -30.7465 -29.8418
rtoes -23.6524
lfemur -10.8836 -18.2778 -21.9702
ltibia 34.4236
lfoot -28.9152 24.9974
ltoes -1.83773
71
root -24.0515 14.982 -0.438606 -7.14834 84.83 -6.82752
lowerback 3.48446 2.47932 -0.428358
upperback 3.20479 3.36588 -1.22822
thorax 1.38771 1.71553 -1.09156
lowerneck -11.3864 5.03455 8.43256
upperneck 11.4487 5.78365 -2.8156
head 5.65711 2.99867 -1.76031
rclavicle 1.27719e-014 1.19271e-014
rhumerus -36.5774 -0.607916 -88.3413
rradius 36.3543
rwrist -21.3334
rhand -17.0967 0.0228551
rfingers 7.12502
rthumb 9.14202 -29.759
lclavicle 1.27719e-014 1.19271e-014
lhumerus -31.3706 -1.60439 85.0818
lradius 30.6543
lwrist -1.22685
lhand -19.9272 11.0139
lfingers 7.12502
lthumb 6.41007 40.8969
rfemur -10.1239 16.8287 24.2081
rtibia 33.1688
rfoot -30.7346 -29.696
rtoes -23.9327
lfemur -10.6185 -18.4697 -22.0995
ltibia 34.4551
lfoot -29.2555 25.2571
ltoes -1.32753
72
root -24.0497 14.9823 -0.440288 -7.93732 84.8585 -7.64868
lowerback 3.46147 2.44993 -0.350038
upperback 3.20206 3.32791 -1.20361
thorax 1.4 1.69747 -1.10813
lowerneck -11.3828 5.05087 8.45344
upperneck 11.4521 5.80575 -2.83921
head 5.66018 3.00869 -1.76907
rclavicle 3.07619e-014 -1.47101e-014
rhumerus -36.5576 -0.622999 -88.3269
rradius 36.3137
rwrist -21.3058
rhand -17.091 0.0982618
rfingers 7.12502
rthumb 9.14753 -29.6833
lclavicle 3.07619e-014 -1.47101e-014
lhumerus -31.3312 -1.50404 85.0454
lradius 30.5962
lwrist -1.25425
lhand -19.9773 10.7655
lfingers 7.12502
lthumb 6.36174 40.6499
rfemur -10.1499 16.8418 24.2717
rtibia 33.1752
rfoot -30.754 -29.7176
rtoes -24.0192
lfemur -10.6729 -18.5183 -22.0271
ltibia 34.5037
lfoot -29.2758 25.2947
ltoes -1.43579
73
root -24.0478 14.9827 -0.4414 -8.98207 84.8618 -8.71992
lowerback 3.47849 2.43512 -0.219813
upperback 3.16957 3.30934 -1.19735
thorax 1.36368 1.69 -1.17556
lowerneck -11.3459 5.06055 8.44821
upperneck 11.4745 5.81675 -2.78435
head 5.65997 3.01867 -1.75053
rclavicle 3.4837e-014 -1.11319e-014
rhumerus -36.5878 -0.662908 -88.344
rradius 36.2677
rwrist -21.2587
rhand -17.0932 0.183298
rfingers 7.12502
rthumb 9.14541 -29.5984
lclavicle 3.4837e-014 -1.11319e-014
lhumerus -31.3773 -1.5617 85.0173
lradius 30.6071
lwrist -1.20598
lhand -20.1049 10.824
lfingers 7.12502
lthumb 6.23852 40.7121
rfemur -10.1603 16.784 24.3613
rtibia 33.1402
rfoot -30.5924 -29.7838
rtoes -24.1548
lfemur -10.7185 -18.5312 -21.9283
ltibia 34.5553
lfoot -29.2435 25.3385
ltoes -1.7015
74
root -24.0458 14.9821 -0.442277 -9.74615 84.867 -9.47295
lowerback 3.50709 2.4108 -0.116863
upperback 3.16186 3.27862 -1.19455
thorax 1.34477 1.67637 -1.23096
lowerneck -11.2621 5.08331 8.38938
upperneck 11.4214 5.85684 -2.72685
head 5.62794 3.03981 -1.72177
rclavicle 9.69075e-015 -4.77083e-015
rhumerus -36.5954 -0.60386 -88.3954
rradius 36.2542
rwrist -21.2496
rhand -17.152 0.151211
rfingers 7.12502
rthumb 9.0887 -29.633
lclavicle 9.69075e-015 -4.77083e-015
lhumerus -31.4353 -1.63661 84.9876
lradius 30.6564
lwrist -1.15706
lhand -20.266 11.0651
lfingers 7.12502
lthumb 6.08305 40.9577
rfemur -10.1274 16.6805 24.4288
rtibia 33.1022
rfoot -30.4676 -29.8444
rtoes -24.504
lfemur -10.7156 -18.5479 -21.8701
ltibia 34.5915
lfoot -29.2144 25.3714
ltoes -1.92506
